# AST/ASF file generated using VICON BodyLanguage
# -----------------------------------------------
:version 1.10
:name VICON
:units
  mass 1.0
  length 0.45
  angle deg
:documentation
   .ast/.asf automatically generated from VICON data using
   VICON BodyBuilder and BodyLanguage model FoxedUp or BRILLIANT.MOD
:root
   order TX TY TZ RX RY RZ
   axis XYZ
   position 0 0 0  
   orientation 0 0 0 
:bonedata
  begin
     id 1 
     name lhipjoint
     direction 0.537252 -0.787203 0.302774 
     length 2.29576 
     axis 0 0 0  XYZ
  end
  begin
     id 2 
     name lfemur
     direction 0.34202 -0.939693 0  
     length 7.31114  
     axis 0 0 20  XYZ
    dof rx ry rz
    limits (-160.0 20.0)
           (-70.0 70.0)
           (-60.0 70.0)
  end
  begin
     id 3 
     name ltibia
     direction 0.34202 -0.939693 0   
     length 8.36008   
     axis 0 0 20   XYZ
    dof rx
    limits (-10.0 170.0)
  end
  begin
     id 4 
     name lfoot
     direction 0.0969116 -0.266263 0.959016   
     length 2.16704   
     axis -90 7.62852e-016 20   XYZ
    dof rx rz
    limits (-45.0 90.0)
           (-70.0 20.0)
  end
  begin
     id 5 
     name ltoes
     direction 1.53563e-011 -4.21779e-011 1   
     length 1.08338   
     axis -90 7.62852e-016 20   XYZ
    dof rx
    limits (-90.0 20.0)
  end
  begin
     id 6 
     name rhipjoint
     direction -0.588228 -0.754791 0.290308   
     length 2.39434  
     axis 0 0 0  XYZ 
  end
  begin
     id 7 
     name rfemur
     direction -0.34202 -0.939693 0   
     length 7.45207   
     axis 0 0 -20   XYZ
    dof rx ry rz
    limits (-160.0 20.0)
           (-70.0 70.0)
           (-70.0 60.0)
  end
  begin
     id 8 
     name rtibia
     direction -0.34202 -0.939693 0   
     length 8.03565   
     axis 0 0 -20   XYZ
    dof rx
    limits (-10.0 170.0)
 end
 begin
     id 9 
     name rfoot
     direction -0.107009 -0.294004 0.949795   
     length 2.11509  
     axis -90 -7.62852e-016 -20   XYZ
    dof rx rz
    limits (-45.0 90.0)
           (-20.0 70.0)
  end
  begin
     id 10 
     name rtoes
     direction -1.53533e-011 -4.22004e-011 1   
     length 1.05493   
     axis -90 -7.62852e-016 -20   XYZ
    dof rx
    limits (-90.0 20.0)
  end
  begin
     id 11 
     name lowerback
     direction -0.0115208 0.997969 -0.0626515   
     length 2.03153   
     axis 0 0 0   XYZ
    dof rx ry rz
    limits (-20.0 45.0)
           (-30.0 30.0)
           (-30.0 30.0)
  end
  begin
     id 12 
     name upperback
     direction -0.00423475 0.999974 -0.00583614   
     length 2.03619   
     axis 0 0 0   XYZ
    dof rx ry rz
    limits (-20.0 45.0)
           (-30.0 30.0)
           (-30.0 30.0)
  end
  begin
     id 13 
     name thorax
     direction 0.00289429 0.999728 0.0231573   
     length 2.03921   
     axis 0 0 0   XYZ
    dof rx ry rz
    limits (-20.0 45.0)
           (-30.0 30.0)
           (-30.0 30.0)
  end
  begin
     id 14 
     name lowerneck
     direction 0.0188995 0.987777 0.154721   
     length 1.78836   
     axis 0 0 0   XYZ
    dof rx ry rz
    limits (-20.0 45.0)
           (-30.0 30.0)
           (-30.0 30.0)
  end
  begin
     id 15 
     name upperneck
     direction -0.00612612 0.992995 -0.118   
     length 1.81789   
     axis 0 0 0   XYZ
    dof rx ry rz
    limits (-20.0 45.0)
           (-30.0 30.0)
           (-30.0 30.0)
  end
  begin
     id 16
     name head
     direction -0.00420226 0.998397 -0.0564482  
     length 1.82234  
     axis 0 0 0   XYZ
    dof rx ry rz
    limits (-20.0 45.0)
           (-30.0 30.0)
           (-30.0 30.0)
  end
  begin
     id 17 
     name lclavicle
     direction 0.916488 0.396539 0.0529676  
     length 3.51732  
     axis 0 0 0   XYZ
    dof ry rz
    limits (-20.0 10.0)
           (0.0 20.0)
  end
  begin
     id 18 
     name lhumerus
     direction 1 -4.4896e-011 8.36962e-028   
     length 5.45077   
     axis 180 -30 -90   XYZ
    dof rx ry rz
    limits (-60.0 90.0)
           (-90.0 90.0)
           (-90.0 90.0)
  end
  begin
     id 19
     name lradius
     direction 1 -4.48962e-011 3.01407e-027   
     length 3.05488   
     axis 180 -30 -90   XYZ
    dof rx
    limits (-10.0 170.0)
  end
  begin
     id 20
     name lwrist
     direction 1 -4.49002e-011 4.72961e-027   
     length 1.52744   
     axis -2.72261e-015 90 90   XYZ
    dof ry
    limits (-180.0 0.0)
 end
  begin
     id 21 
     name lhand
     direction 1 -4.4899e-011 9.45681e-027   
     length 0.638818   
     axis -6.0311e-015 90 90   XYZ
    dof rx rz
    limits (-90.0 90.0)
           (-45.0 45.0)
  end
  begin
     id 22 
     name lfingers
     direction 1 -4.48871e-011 1.88632e-026   
     length 0.515032   
     axis -1.20625e-014 90 90   XYZ
    dof rx
    limits (0.0 90.0)
  end
  begin
     id 23
     name lthumb
     direction 0.707107 -6.34964e-011 0.707107   
     length 0.739485   
     axis -90 45 6.32835e-014   XYZ
    dof rx rz
    limits (-45.0 45.0)
           (-45.0 45.0)
  end
  begin
     id 24 
     name rclavicle
     direction -0.949427 0.303202 0.0815894   
     length 3.76167  
     axis 0 0 0   XYZ 
    dof ry rz
    limits (-10.0 20.0)
           (-20.0 0.0)
  end
  begin
     id 25 
     name rhumerus
     direction -1 -4.48971e-011 -6.43969e-018  
     length 4.88702   
     axis 180 30 90   XYZ
    dof rx ry rz
    limits (-90.0 60.0)
           (-90.0 90.0)
           (-90.0 90.0)
  end
  begin
     id 26 
     name rradius
     direction -1 -4.48987e-011 5.46662e-027   
     length 3.22603   
     axis 180 30 90   XYZ
    dof rx
    limits (-10.0 170.0)
  end
  begin
     id 27 
     name rwrist
     direction -1 -4.48956e-011 4.72476e-027   
     length 1.61302   
     axis -2.72261e-015 -90 -90   XYZ
    dof ry
    limits (-180.0 0.0)
  end
  begin
     id 28
     name rhand
     direction -1 -4.4889e-011 9.43571e-027   
     length 0.716293   
     axis -6.0311e-015 -90 -90   XYZ
    dof rx rz
    limits (-90.0 90.0)
           (-45.0 45.0)
  end
  begin
     id 29
     name rfingers
     direction -1 -4.48887e-011 1.88701e-026   
     length 0.577494   
     axis -1.20625e-014 -90 -90   XYZ
    dof rx
    limits (0.0 90.0)
  end
  begin
     id 30
     name rthumb
     direction -0.707107 -6.34825e-011 0.707107   
     length 0.829169   
     axis -90 -45 -6.32835e-014   XYZ
    dof rx rz
    limits (-45.0 45.0)
           (-45.0 45.0)
  end
:hierarchy
  begin
    root lhipjoint rhipjoint lowerback
    lhipjoint lfemur
    lfemur ltibia
    ltibia lfoot
    lfoot ltoes
    rhipjoint rfemur
    rfemur rtibia
    rtibia rfoot
    rfoot rtoes
    lowerback upperback
    upperback thorax
    thorax lowerneck lclavicle rclavicle
    lowerneck upperneck
    upperneck head
    lclavicle lhumerus
    lhumerus lradius
    lradius lwrist
    lwrist lhand lthumb
    lhand lfingers
    rclavicle rhumerus
    rhumerus rradius
    rradius rwrist
    rwrist rhand rthumb
    rhand rfingers
  end

#!OML:ASF F:\VICON\USERDATA\INSTALL\rory3\rory3.ASF
:FULLY-SPECIFIED
:DEGREES
69
root 1.22266 18.5218 0.386426 138.578 87.0756 125.627
lowerback -4.66065 -0.94139 -0.185659
upperback -1.1567 -1.22239 -0.366511
thorax 1.41991 -0.603521 -0.34242
lowerneck -15.4455 1.20738 3.86271
upperneck 37.1622 3.29608 -3.25268
head 15.8839 1.94574 -1.37009
rclavicle -5.69021e-015 2.38542e-015
rhumerus -22.7045 -3.20538 -79.2469
rradius 59.8101
rwrist -181.355
rhand -26.5034 -7.82986
rfingers 7.12502
rthumb 0.0595734 -37.8096
lclavicle -5.69021e-015 2.38542e-015
lhumerus -23.6634 4.74629 74.3463
lradius 49.9093
lwrist 187.796
lhand -28.3629 -29.2718
lfingers 7.12502
lthumb -1.73644 0.700833
rfemur -10.885 -4.08209 13.9419
rtibia 6.68781
rfoot -8.47376 1.04296
rtoes -9.53971
lfemur -16.8421 11.08 -20.4107
ltibia 17.2716
lfoot -12.6212 -0.71383
ltoes -24.0586
70
root 1.18888 18.526 0.390497 138.58 87.0982 125.396
lowerback -4.3086 -0.940657 -0.207111
upperback -1.03612 -1.22494 -0.343528
thorax 1.34789 -0.606195 -0.301917
lowerneck -15.3899 1.21121 3.90819
upperneck 37.2005 3.34195 -3.35864
head 15.8957 1.9584 -1.4165
rclavicle 9.41742e-015 -1.25234e-014
rhumerus -22.1231 -3.15999 -79.0908
rradius 60.3493
rwrist -181.523
rhand -26.6267 -7.70421
rfingers 7.12502
rthumb -0.0595352 -37.6839
lclavicle 9.41742e-015 -1.25234e-014
lhumerus -23.1602 4.76535 74.2258
lradius 50.4096
lwrist 188.726
lhand -28.0856 -29.5999
lfingers 7.12502
lthumb -1.46854 0.374796
rfemur -11.3911 -4.07938 13.9764
rtibia 6.93081
rfoot -8.46731 1.08174
rtoes -9.80916
lfemur -17.2244 11.1221 -20.4721
ltibia 17.2355
lfoot -12.4754 -0.696436
ltoes -24.2199
71
root 1.15793 18.5279 0.391879 139.416 87.1058 125.981
lowerback -3.99929 -0.937582 -0.137876
upperback -0.926744 -1.22712 -0.343796
thorax 1.2857 -0.608173 -0.33667
lowerneck -15.2778 1.19953 3.88758
upperneck 37.1967 3.34471 -3.36292
head 15.8662 1.95781 -1.41486
rclavicle 1.38652e-014 -3.18055e-015
rhumerus -21.5329 -3.25585 -78.9605
rradius 60.7845
rwrist -181.632
rhand -26.9205 -7.87534
rfingers 7.12502
rthumb -0.343331 -37.8548
lclavicle 1.38652e-014 -3.18055e-015
lhumerus -22.6705 4.75111 74.0879
lradius 50.8715
lwrist 189.683
lhand -27.8011 -29.616
lfingers 7.12502
lthumb -1.19385 0.360425
rfemur -11.8808 -4.1193 14.0226
rtibia 7.1202
rfoot -8.46348 1.07813
rtoes -10.2178
lfemur -17.6154 11.1187 -20.5194
ltibia 17.2281
lfoot -12.3373 -0.712635
ltoes -24.0501
72
root 1.12479 18.5281 0.39373 139.779 87.0659 126.11
lowerback -3.64383 -0.942798 -0.110009
upperback -0.811316 -1.23816 -0.359059
thorax 1.20429 -0.614628 -0.363215
lowerneck -15.2343 1.17859 3.73964
upperneck 37.2462 3.32991 -3.24661
head 15.8738 1.9482 -1.34148
rclavicle 8.94531e-016 -5.96354e-016
rhumerus -20.9167 -3.13458 -78.8554
rradius 61.1191
rwrist -182.29
rhand -26.7111 -7.82215
rfingers 7.12502
rthumb -0.141069 -37.8019
lclavicle 8.94531e-016 -5.96354e-016
lhumerus -22.1172 4.92092 73.9442
lradius 51.2379
lwrist 190.564
lhand -27.6625 -29.6236
lfingers 7.12502
lthumb -1.05993 0.353506
rfemur -12.2833 -4.17886 14.0164
rtibia 7.18824
rfoot -8.38751 1.10574
rtoes -9.61434
lfemur -18.0154 11.025 -20.5918
ltibia 17.2697
lfoot -12.2364 -0.722814
ltoes -23.418
73
root 1.09001 18.5332 0.397467 139.545 86.9728 125.54
lowerback -3.32611 -0.947795 -0.19941
upperback -0.739578 -1.24381 -0.375544
thorax 1.10159 -0.618357 -0.325209
lowerneck -15.2258 1.15692 3.65855
upperneck 37.2666 3.31159 -3.19984
head 15.8782 1.93524 -1.31047
rclavicle 4.47266e-016 -6.36111e-015
rhumerus -20.273 -3.02234 -78.7361
rradius 61.4172
rwrist -182.954
rhand -26.3369 -7.79759
rfingers 7.12502
rthumb 0.2204 -37.7772
lclavicle 4.47266e-016 -6.36111e-015
lhumerus -21.5618 5.08037 73.8375
lradius 51.6363
lwrist 191.343
lhand -27.5389 -29.6407
lfingers 7.12502
lthumb -0.940596 0.336987
rfemur -12.7699 -4.26537 13.9584
rtibia 7.21983
rfoot -8.37433 1.11134
rtoes -8.69106
lfemur -18.5668 11.0535 -20.7888
ltibia 17.3177
lfoot -12.0597 -0.765942
ltoes -23.4018
74
root 1.05356 18.5381 0.403075 140.308 86.9795 125.949
lowerback -3.0399 -0.935003 -0.180601
upperback -0.634809 -1.22963 -0.391436
thorax 1.04809 -0.611897 -0.34735
lowerneck -15.3025 1.14552 3.66451
upperneck 37.3016 3.27419 -3.15443
head 15.9117 1.92423 -1.29882
rclavicle -3.50358e-015 -1.98785e-016
rhumerus -19.5744 -3.1201 -78.6502
rradius 61.8474
rwrist -183.103
rhand -26.4396 -7.61667
rfingers 7.12502
rthumb 0.121191 -37.5964
lclavicle -3.50358e-015 -1.98785e-016
lhumerus -20.9036 5.20366 73.6914
lradius 52.0142
lwrist 192.224
lhand -27.6473 -30.0245
lfingers 7.12502
lthumb -1.04528 -0.0473124
rfemur -13.294 -4.30408 14.0323
rtibia 7.22784
rfoot -8.28003 1.08845
rtoes -8.37166
lfemur -19.1629 11.2026 -20.8821
ltibia 17.3766
lfoot -11.8756 -0.890597
ltoes -23.4594
75
root 1.01759 18.5411 0.407978 140.383 87.0182 125.693
lowerback -2.70121 -0.924086 -0.167406
upperback -0.561727 -1.21767 -0.40941
thorax 0.932754 -0.606448 -0.367333
lowerneck -15.2028 1.13914 3.70403
upperneck 37.2592 3.23071 -3.0958
head 15.8631 1.91916 -1.28906
rclavicle -8.29926e-015 9.83984e-015
rhumerus -18.9402 -3.20202 -78.5852
rradius 62.2611
rwrist -183.243
rhand -26.6336 -7.53502
rfingers 7.12502
rthumb -0.0662051 -37.5147
lclavicle -8.29926e-015 9.83984e-015
lhumerus -20.3589 5.38167 73.5083
lradius 52.4051
lwrist 193.075
lhand -28.2728 -30.6424
lfingers 7.12502
lthumb -1.64937 -0.669072
rfemur -13.7789 -4.29576 14.0885
rtibia 7.20281
rfoot -8.16654 1.09632
rtoes -8.06095
lfemur -19.7268 11.312 -20.96
ltibia 17.45
lfoot -11.7485 -0.995765
ltoes -22.9375
76
root 0.984573 18.543 0.41222 140.559 87.0896 125.541
lowerback -2.41458 -0.91257 -0.146713
upperback -0.457124 -1.20527 -0.38162
thorax 0.87962 -0.600799 -0.346061
lowerneck -15.0918 1.12113 3.70377
upperneck 37.1416 3.19608 -3.09734
head 15.775 1.9015 -1.29654
rclavicle 6.31141e-015 1.65985e-014
rhumerus -18.2243 -3.10516 -78.4943
rradius 62.5255
rwrist -183.722
rhand -26.3984 -7.5161
rfingers 7.12502
rthumb 0.16093 -37.4958
lclavicle 6.31141e-015 1.65985e-014
lhumerus -19.8316 5.57769 73.402
lradius 52.8911
lwrist 193.873
lhand -28.8091 -30.9188
lfingers 7.12502
lthumb -2.1673 -0.950102
rfemur -14.2842 -4.26704 14.162
rtibia 7.21653
rfoot -8.07944 1.12486
rtoes -7.93936
lfemur -20.2791 11.5146 -21.0298
ltibia 17.5036
lfoot -11.6075 -1.1295
ltoes -22.571
77
root 0.950361 18.5427 0.414946 141.543 87.0938 126.191
lowerback -2.09539 -0.93423 -0.147711
upperback -0.366588 -1.23669 -0.326961
thorax 0.794648 -0.617079 -0.285717
lowerneck -15.1073 1.08278 3.54506
upperneck 37.1553 3.1674 -3.03652
head 15.7795 1.87371 -1.24759
rclavicle 6.73383e-015 1.11319e-014
rhumerus -17.5349 -2.77798 -78.3519
rradius 62.7806
rwrist -184.413
rhand -25.9293 -7.42407
rfingers 7.12502
rthumb 0.613987 -37.4029
lclavicle 6.73383e-015 1.11319e-014
lhumerus -19.269 5.8085 73.3474
lradius 53.3405
lwrist 194.622
lhand -28.8502 -30.798
lfingers 7.12502
lthumb -2.20699 -0.82966
rfemur -14.8933 -4.31662 14.2214
rtibia 7.43355
rfoot -8.03032 1.21545
rtoes -7.77056
lfemur -20.7783 11.5529 -21.1124
ltibia 17.4615
lfoot -11.3969 -1.14797
ltoes -22.8851
78
root 0.912448 18.5431 0.417974 143.273 87.05 127.612
lowerback -1.67035 -0.942096 -0.0957645
upperback -0.289442 -1.25024 -0.328248
thorax 0.634363 -0.624178 -0.309485
lowerneck -15.0965 1.02174 3.44315
upperneck 37.1684 3.07963 -2.95287
head 15.7751 1.83346 -1.20938
rclavicle -8.64713e-015 9.54166e-015
rhumerus -16.9051 -2.61803 -78.2217
rradius 63.1146
rwrist -184.835
rhand -25.5472 -7.41349
rfingers 7.12502
rthumb 0.983044 -37.391
lclavicle -8.64713e-015 9.54166e-015
lhumerus -18.7051 5.79603 73.2619
lradius 53.8626
lwrist 195.364
lhand -28.7132 -30.8222
lfingers 7.12502
lthumb -2.07473 -0.85257
rfemur -15.5228 -4.42581 14.2768
rtibia 7.72328
rfoot -7.99305 1.27446
rtoes -7.93389
lfemur -21.2355 11.5066 -21.1737
ltibia 17.3979
lfoot -11.1906 -1.18254
ltoes -22.7146
79
root 0.874952 18.5444 0.421064 141.715 86.9261 125.746
lowerback -1.2302 -0.938713 -0.250381
upperback -0.200396 -1.24494 -0.367868
thorax 0.481365 -0.621974 -0.256232
lowerneck -15.0725 0.986335 3.38848
upperneck 37.1006 3.02256 -2.91577
head 15.7305 1.80389 -1.19417
rclavicle 9.19379e-015 -5.86415e-015
rhumerus -16.2064 -2.62095 -78.0951
rradius 63.4122
rwrist -185.139
rhand -25.4979 -7.39581
rfingers 7.12502
rthumb 1.03068 -37.3731
lclavicle 9.19379e-015 -5.86415e-015
lhumerus -18.0553 5.85881 73.179
lradius 54.273
lwrist 196.014
lhand -28.8046 -30.8321
lfingers 7.12502
lthumb -2.16301 -0.863302
rfemur -16.1416 -4.50068 14.1292
rtibia 7.99611
rfoot -7.95802 1.36243
rtoes -7.96527
lfemur -21.6944 11.4715 -21.4433
ltibia 17.3423
lfoot -11.0623 -1.14339
ltoes -22.8865
80
root 0.836605 18.544 0.422777 141.584 86.8859 125.363
lowerback -0.714097 -0.945715 -0.275722
upperback -0.0931443 -1.25648 -0.38582
thorax 0.302073 -0.627895 -0.252234
lowerneck -15.0756 0.968573 3.37024
upperneck 36.9998 2.98794 -2.9189
head 15.6788 1.78114 -1.19876
rclavicle 1.14798e-014 1.30204e-014
rhumerus -15.4531 -2.50015 -78.0025
rradius 63.6083
rwrist -185.74
rhand -25.2363 -7.27549
rfingers 7.12502
rthumb 1.28336 -37.2514
lclavicle 1.14798e-014 1.30204e-014
lhumerus -17.4046 6.02171 73.0656
lradius 54.6787
lwrist 196.611
lhand -28.8769 -30.8388
lfingers 7.12502
lthumb -2.23287 -0.870691
rfemur -16.7568 -4.55213 14.0859
rtibia 8.36789
rfoot -7.95753 1.452
rtoes -8.06419
lfemur -22.0857 11.4529 -21.5909
ltibia 17.2451
lfoot -10.8803 -1.06258
ltoes -23.4144
